<svg xmlns="http://www.w3.org/2000/svg" viewBox="0 0 1200 630" width="1200" height="630"><rect width="1200" height="630" fill="#101113"/><g transform="translate(100,167) scale(0.546875)"><rect width="512" height="512" rx="104" fill="#1F95D6"/><path d="M200 144 L136 88 M264 392 L344 336" fill="none" stroke="#fff" stroke-width="19" stroke-linecap="round" opacity="0.55"/><path d="M72 264 H160 L200 144 L264 392 L320 264 H440" fill="none" stroke="#fff" stroke-width="40" stroke-linejoin="round" stroke-linecap="round"/><circle cx="136" cy="88" r="24" fill="#fff"/><circle cx="344" cy="336" r="24" fill="#fff"/><circle cx="200" cy="144" r="35" fill="#fff"/><circle cx="264" cy="392" r="35" fill="#fff"/><circle cx="200" cy="144" r="15" fill="#1F95D6"/><circle cx="264" cy="392" r="15" fill="#1F95D6"/></g><text x="430" y="290" font-family="Noto Serif JP, Yu Mincho, serif" font-size="138" font-weight="900" fill="#EEEFF1" letter-spacing="-4">AI<tspan fill="#1F95D6">-</tspan>Pulse</text><text x="430" y="362" font-family="Noto Serif JP, Yu Mincho, serif" font-size="36" font-weight="500" fill="#AAACB1">生成AIニュースの分析サイト兼DB</text><text x="430" y="416" font-family="JetBrains Mono, Consolas, monospace" font-size="20" font-weight="400" fill="#AAACB1" letter-spacing="2">7 LENSES × DEEP KARTE</text><rect x="0.00" y="618" width="171.43" height="12" fill="#70ADFE"/><rect x="171.43" y="618" width="171.43" height="12" fill="#48D8DF"/><rect x="342.86" y="618" width="171.43" height="12" fill="#BEA3FF"/><rect x="514.29" y="618" width="171.43" height="12" fill="#E291EE"/><rect x="685.71" y="618" width="171.43" height="12" fill="#66DC9E"/><rect x="857.14" y="618" width="171.43" height="12" fill="#F5C25F"/><rect x="1028.57" y="618" width="171.43" height="12" fill="#FF8977"/></svg>